<svg width="37" height="22" viewBox="0 0 37 22" fill="none" xmlns="http://www.w3.org/2000/svg">
<path d="M32.5 2H11.5605C10.8193 2 10.1042 2.27444 9.55333 2.7704L3.3348 8.36867C2.0631 9.51352 2.00503 11.4885 3.20726 12.7061L9.52816 19.1078C10.0918 19.6787 10.8607 20 11.6629 20H32.5C34.1569 20 35.5 18.6569 35.5 17V5C35.5 3.34315 34.1568 2 32.5 2Z" stroke="black" stroke-width="3" stroke-linejoin="round"/>
<path d="M19.2719 6.81818C19.4547 6.81818 19.6229 6.91793 19.7106 7.07832L20.7844 9.04241C20.9733 9.38793 21.469 9.3896 21.6602 9.04537L22.7547 7.07535C22.8429 6.91662 23.0102 6.81818 23.1918 6.81818H24.0524C24.4415 6.81818 24.6815 7.24308 24.4806 7.57633L22.6284 10.6487C22.532 10.8087 22.5327 11.009 22.6304 11.1683L24.5133 14.2386C24.7177 14.5718 24.4779 15 24.0871 15H23.2369C23.0597 15 22.8957 14.9061 22.8059 14.7533L21.6527 12.7912C21.459 12.4616 20.982 12.4625 20.7896 12.793L19.6491 14.7516C19.5595 14.9054 19.395 15 19.217 15H18.3492C17.959 15 17.7192 14.573 17.9222 14.2398L19.7954 11.1659C19.8917 11.0079 19.8928 10.8096 19.7983 10.6505L17.9713 7.57345C17.7735 7.24015 18.0137 6.81818 18.4013 6.81818H19.2719Z" fill="black"/>
</svg>
